<svg width="151" height="97" viewBox="0 0 151 97" fill="none" xmlns="http://www.w3.org/2000/svg">
<path d="M49.316 18.016C49.188 19.648 49.092 21.216 49.028 22.72C48.996 24.224 48.98 25.376 48.98 26.176C48.98 26.88 48.996 27.552 49.028 28.192C49.06 28.832 49.092 29.376 49.124 29.824H48.02C47.508 27.136 46.852 25.008 46.052 23.44C45.284 21.872 44.356 20.768 43.268 20.128C42.18 19.456 40.9 19.12 39.428 19.12H38.324L38.324 46.528C38.324 47.808 38.452 48.768 38.708 49.408C38.996 50.048 39.508 50.48 40.244 50.704C40.98 50.896 42.052 51.008 43.46 51.04V52C42.468 51.968 41.14 51.936 39.476 51.904C37.844 51.872 36.132 51.856 34.34 51.856C32.58 51.856 30.916 51.872 29.348 51.904C27.78 51.936 26.516 51.968 25.556 52V51.04C26.996 51.008 28.084 50.896 28.82 50.704C29.556 50.48 30.052 50.048 30.308 49.408C30.564 48.768 30.692 47.808 30.692 46.528L30.692 19.12H29.636C28.164 19.12 26.884 19.456 25.796 20.128C24.708 20.768 23.78 21.872 23.012 23.44C22.244 24.976 21.572 27.104 20.996 29.824H19.892C19.956 29.376 19.988 28.832 19.988 28.192C20.02 27.552 20.036 26.88 20.036 26.176C20.036 25.376 20.004 24.224 19.94 22.72C19.908 21.216 19.828 19.648 19.7 18.016C21.172 18.048 22.772 18.08 24.5 18.112C26.26 18.144 28.02 18.16 29.78 18.16C31.54 18.16 33.124 18.16 34.532 18.16C35.972 18.16 37.556 18.16 39.284 18.16C41.044 18.16 42.804 18.144 44.564 18.112C46.324 18.08 47.908 18.048 49.316 18.016ZM61.1773 14.464L61.1773 30.976C61.9773 29.312 63.0493 28.16 64.3932 27.52C65.7693 26.848 67.3053 26.512 69.0013 26.512C70.3773 26.512 71.4813 26.688 72.3133 27.04C73.1453 27.36 73.8013 27.808 74.2812 28.384C74.8253 28.992 75.2093 29.776 75.4333 30.736C75.6893 31.696 75.8173 32.992 75.8173 34.624V47.536C75.8173 48.88 76.0413 49.792 76.4893 50.272C76.9693 50.752 77.7693 50.992 78.8893 50.992V52C78.2813 51.968 77.3533 51.936 76.1053 51.904C74.8893 51.84 73.7053 51.808 72.5533 51.808C71.3053 51.808 70.0893 51.84 68.9053 51.904C67.7533 51.936 66.8893 51.968 66.3133 52V50.992C67.2733 50.992 67.9453 50.752 68.3293 50.272C68.7133 49.792 68.9053 48.88 68.9053 47.536V32.608C68.9053 31.808 68.8253 31.12 68.6653 30.544C68.5053 29.936 68.2013 29.472 67.7533 29.152C67.3373 28.8 66.7293 28.624 65.9293 28.624C65.0653 28.624 64.2653 28.864 63.5293 29.344C62.8253 29.792 62.2493 30.432 61.8013 31.264C61.3853 32.096 61.1773 33.056 61.1773 34.144V47.536C61.1773 48.88 61.3693 49.792 61.7533 50.272C62.1373 50.752 62.8093 50.992 63.7693 50.992V52C63.1933 51.968 62.3453 51.936 61.2253 51.904C60.1053 51.84 58.9693 51.808 57.8173 51.808C56.5693 51.808 55.3053 51.84 54.0253 51.904C52.7773 51.936 51.8333 51.968 51.1933 52V50.992C52.3133 50.992 53.0973 50.752 53.5453 50.272C54.0253 49.792 54.2653 48.88 54.2653 47.536L54.2653 20.224C54.2653 18.784 54.0413 17.728 53.5933 17.056C53.1773 16.352 52.3773 16 51.1933 16V14.992C52.2173 15.088 53.2093 15.136 54.1693 15.136C55.4813 15.136 56.7293 15.088 57.9133 14.992C59.0973 14.864 60.1853 14.688 61.1773 14.464ZM93.0204 26.512C95.8364 26.512 98.0444 27.344 99.6444 29.008C101.244 30.672 102.044 33.392 102.044 37.168H86.2524L86.1564 36.256H95.9964C96.0284 34.688 95.9324 33.248 95.7084 31.936C95.4844 30.592 95.1324 29.52 94.6524 28.72C94.1724 27.92 93.5324 27.52 92.7324 27.52C91.6124 27.52 90.6524 28.224 89.8524 29.632C89.0844 31.04 88.6204 33.376 88.4604 36.64L88.6044 36.928C88.5724 37.312 88.5404 37.712 88.5084 38.128C88.5084 38.544 88.5084 38.976 88.5084 39.424C88.5084 41.632 88.8124 43.424 89.4204 44.8C90.0604 46.176 90.8604 47.184 91.8204 47.824C92.7804 48.432 93.7564 48.736 94.7484 48.736C95.4204 48.736 96.1084 48.64 96.8124 48.448C97.5484 48.224 98.2844 47.84 99.0204 47.296C99.7564 46.72 100.444 45.92 101.084 44.896L101.948 45.184C101.564 46.4 100.956 47.584 100.124 48.736C99.2924 49.888 98.2364 50.832 96.9564 51.568C95.6764 52.304 94.1404 52.672 92.3484 52.672C90.1724 52.672 88.2524 52.208 86.5884 51.28C84.9244 50.352 83.6124 48.944 82.6524 47.056C81.7244 45.168 81.2604 42.768 81.2604 39.856C81.2604 36.88 81.7564 34.4 82.7484 32.416C83.7724 30.432 85.1644 28.96 86.9244 28C88.7164 27.008 90.7484 26.512 93.0204 26.512Z" fill="#EBE3D5"/>
<path d="M0.896 93.524V92.564C2.176 92.436 3.264 92.052 4.16 91.412C5.056 90.804 5.744 89.748 6.224 88.244C6.704 86.74 6.944 84.628 6.944 81.908L6.944 55.604C6.944 54.42 6.848 53.556 6.656 53.012C6.496 52.436 6.16 52.052 5.648 51.86C5.136 51.636 4.368 51.508 3.344 51.476L3.344 50.516C4.144 50.548 5.184 50.58 6.464 50.612C7.776 50.644 9.152 50.66 10.592 50.66C12.032 50.66 13.424 50.644 14.768 50.612C16.144 50.58 17.28 50.548 18.176 50.516V51.476C17.184 51.508 16.416 51.636 15.872 51.86C15.36 52.052 15.008 52.436 14.816 53.012C14.656 53.556 14.576 54.42 14.576 55.604L14.576 73.172C14.576 74.484 14.576 75.908 14.576 77.444C14.576 78.948 14.512 80.42 14.384 81.86C14.288 83.3 14.08 84.58 13.76 85.7C13.12 87.908 11.728 89.764 9.584 91.268C7.472 92.772 4.576 93.524 0.896 93.524ZM26.276 84.836C24.836 84.836 23.636 84.564 22.676 84.02C21.716 83.476 21.012 82.756 20.564 81.86C20.116 80.932 19.892 79.924 19.892 78.836C19.892 77.46 20.196 76.34 20.804 75.476C21.444 74.612 22.26 73.908 23.252 73.364C24.244 72.82 25.284 72.372 26.372 72.02C27.492 71.668 28.548 71.332 29.54 71.012C30.564 70.66 31.38 70.26 31.988 69.812C32.628 69.332 32.948 68.724 32.948 67.988L32.948 64.244C32.948 63.412 32.804 62.676 32.516 62.036C32.26 61.364 31.844 60.852 31.268 60.5C30.724 60.148 30.004 59.972 29.108 59.972C28.468 59.972 27.828 60.068 27.188 60.26C26.548 60.42 26.02 60.708 25.604 61.124C26.5 61.444 27.188 61.94 27.668 62.612C28.18 63.252 28.436 63.988 28.436 64.82C28.436 65.908 28.052 66.772 27.284 67.412C26.548 68.052 25.668 68.372 24.644 68.372C23.492 68.372 22.612 68.02 22.004 67.316C21.428 66.58 21.14 65.7 21.14 64.676C21.14 63.748 21.364 62.98 21.812 62.372C22.292 61.764 22.948 61.188 23.78 60.644C24.676 60.132 25.748 59.732 26.996 59.444C28.276 59.156 29.652 59.012 31.124 59.012C32.596 59.012 33.924 59.172 35.108 59.492C36.292 59.78 37.284 60.324 38.084 61.124C38.82 61.86 39.3 62.772 39.524 63.86C39.748 64.916 39.86 66.26 39.86 67.892V80.948C39.86 81.748 39.94 82.308 40.1 82.628C40.26 82.916 40.532 83.06 40.916 83.06C41.204 83.06 41.476 82.98 41.732 82.82C42.02 82.66 42.324 82.468 42.644 82.244L43.124 83.06C42.452 83.636 41.668 84.084 40.772 84.404C39.908 84.692 38.932 84.836 37.844 84.836C36.66 84.836 35.716 84.676 35.012 84.356C34.308 84.004 33.796 83.54 33.476 82.964C33.188 82.388 33.044 81.716 33.044 80.948C32.276 82.164 31.348 83.124 30.26 83.828C29.172 84.5 27.844 84.836 26.276 84.836ZM29.684 81.764C30.324 81.764 30.9 81.62 31.412 81.332C31.956 81.012 32.468 80.5 32.948 79.796V69.956C32.66 70.436 32.26 70.868 31.748 71.252C31.236 71.636 30.692 72.036 30.116 72.452C29.54 72.836 28.98 73.268 28.436 73.748C27.924 74.228 27.508 74.82 27.188 75.524C26.868 76.228 26.708 77.076 26.708 78.068C26.708 79.316 26.98 80.244 27.524 80.852C28.068 81.46 28.788 81.764 29.684 81.764ZM61.9198 59.012C63.2638 59.012 64.3518 59.188 65.1838 59.54C66.0158 59.86 66.6878 60.308 67.1998 60.884C67.7118 61.492 68.0798 62.292 68.3038 63.284C68.5278 64.244 68.6398 65.524 68.6398 67.124L68.6398 80.036C68.6398 81.38 68.8478 82.292 69.2638 82.772C69.6798 83.252 70.3998 83.492 71.4238 83.492V84.5C70.8478 84.468 69.9678 84.436 68.7838 84.404C67.6318 84.34 66.4958 84.308 65.3758 84.308C64.2238 84.308 63.0878 84.34 61.9678 84.404C60.8478 84.436 59.9998 84.468 59.4238 84.5V83.492C60.2878 83.492 60.8798 83.252 61.1998 82.772C61.5518 82.292 61.7278 81.38 61.7278 80.036V65.108C61.7278 64.308 61.6638 63.62 61.5358 63.044C61.4078 62.436 61.1518 61.972 60.7678 61.652C60.4158 61.3 59.8718 61.124 59.1358 61.124C58.3038 61.124 57.5358 61.364 56.8318 61.844C56.1278 62.324 55.5518 62.996 55.1038 63.86C54.6878 64.692 54.4798 65.636 54.4798 66.692V80.036C54.4798 81.38 54.6558 82.292 55.0078 82.772C55.3598 83.252 55.9518 83.492 56.7838 83.492V84.5C56.2717 84.468 55.4718 84.436 54.3838 84.404C53.3278 84.34 52.2398 84.308 51.1198 84.308C49.9038 84.308 48.6558 84.34 47.3758 84.404C46.0958 84.436 45.1358 84.468 44.4958 84.5V83.492C45.6158 83.492 46.3998 83.252 46.8478 82.772C47.3278 82.292 47.5678 81.38 47.5678 80.036V64.916C47.5678 63.476 47.3438 62.42 46.8958 61.748C46.4798 61.044 45.6798 60.692 44.4958 60.692V59.684C45.5198 59.78 46.5118 59.828 47.4718 59.828C48.8158 59.828 50.0638 59.78 51.2158 59.684C52.3998 59.556 53.4878 59.38 54.4798 59.156V63.476C55.2478 61.876 56.2878 60.74 57.5998 60.068C58.9118 59.364 60.3518 59.012 61.9198 59.012ZM76.3678 59.012C77.7118 59.012 78.7998 59.188 79.6318 59.54C80.4638 59.86 81.1358 60.308 81.6478 60.884C82.1598 61.492 82.5278 62.292 82.7518 63.284C82.9758 64.244 83.0878 65.524 83.0878 67.124L83.0878 80.036C83.0878 81.38 83.3118 82.292 83.7598 82.772C84.2398 83.252 85.0398 83.492 86.1598 83.492V84.5C85.5518 84.468 84.6398 84.436 83.4238 84.404C82.2078 84.34 81.0078 84.308 79.8238 84.308C78.6718 84.308 77.5358 84.34 76.4158 84.404C75.2958 84.436 74.4478 84.468 73.8718 84.5V83.492C74.7358 83.492 75.3278 83.252 75.6478 82.772C75.9998 82.292 76.1758 81.38 76.1758 80.036L76.1758 65.108C76.1758 64.308 76.0958 63.62 75.9358 63.044C75.8078 62.436 75.5358 61.972 75.1198 61.652C74.7358 61.3 74.1278 61.124 73.2958 61.124C72.4638 61.124 71.6958 61.38 70.9918 61.892C70.2878 62.404 69.7118 63.092 69.2638 63.956C68.8478 64.82 68.6238 65.78 68.5918 66.836L68.3518 63.908C69.2158 61.988 70.3518 60.692 71.7598 60.02C73.1998 59.348 74.7358 59.012 76.3678 59.012ZM111.853 59.156L111.853 79.268C111.853 80.708 112.077 81.78 112.525 82.484C112.973 83.156 113.773 83.492 114.925 83.492V84.5C113.933 84.404 112.941 84.356 111.949 84.356C110.605 84.356 109.357 84.404 108.205 84.5C107.053 84.596 105.965 84.772 104.941 85.028V80.708C104.173 82.308 103.101 83.46 101.725 84.164C100.381 84.836 98.8769 85.172 97.2129 85.172C95.8689 85.172 94.7809 84.996 93.9489 84.644C93.1169 84.292 92.4609 83.844 91.9809 83.3C91.4369 82.692 91.0529 81.892 90.8289 80.9C90.6049 79.908 90.4929 78.628 90.4929 77.06L90.4929 64.916C90.4929 63.476 90.2689 62.42 89.8209 61.748C89.4049 61.044 88.6049 60.692 87.4209 60.692V59.684C88.4449 59.78 89.4369 59.828 90.3969 59.828C91.7409 59.828 92.9889 59.78 94.1409 59.684C95.3249 59.556 96.4129 59.38 97.4049 59.156L97.4049 79.028C97.4049 79.828 97.4689 80.532 97.5969 81.14C97.7569 81.748 98.0449 82.228 98.4609 82.58C98.8769 82.9 99.4849 83.06 100.285 83.06C101.149 83.06 101.917 82.82 102.589 82.34C103.293 81.86 103.853 81.204 104.269 80.372C104.717 79.508 104.941 78.548 104.941 77.492L104.941 64.916C104.941 63.476 104.717 62.42 104.269 61.748C103.853 61.044 103.053 60.692 101.869 60.692V59.684C102.893 59.78 103.885 59.828 104.845 59.828C106.189 59.828 107.437 59.78 108.589 59.684C109.773 59.556 110.861 59.38 111.853 59.156ZM122.275 49.844C123.075 49.844 123.763 49.988 124.339 50.276C124.915 50.564 125.363 50.98 125.683 51.524C126.035 51.972 126.291 52.564 126.451 53.3C126.643 54.036 126.739 54.772 126.739 55.508C126.739 57.108 126.323 58.596 125.491 59.972C124.691 61.316 123.427 62.388 121.699 63.188L121.267 62.324C122.163 61.94 122.963 61.348 123.667 60.548C124.371 59.748 124.787 58.932 124.915 58.1C125.075 57.396 125.075 56.724 124.915 56.084C124.211 56.852 123.283 57.236 122.131 57.236C121.011 57.236 120.099 56.916 119.395 56.276C118.691 55.604 118.339 54.692 118.339 53.54C118.339 52.42 118.707 51.524 119.443 50.852C120.211 50.18 121.155 49.844 122.275 49.844ZM138.844 59.012C140.188 59.012 141.356 59.188 142.348 59.54C143.372 59.86 144.108 60.18 144.556 60.5C145.644 61.236 146.316 60.756 146.572 59.06H147.58C147.516 59.956 147.468 61.06 147.436 62.372C147.404 63.652 147.388 65.364 147.388 67.508H146.38C146.22 66.324 145.916 65.156 145.468 64.004C145.02 62.852 144.364 61.908 143.5 61.172C142.668 60.436 141.58 60.068 140.236 60.068C139.308 60.068 138.524 60.34 137.884 60.884C137.244 61.396 136.924 62.148 136.924 63.14C136.924 64.1 137.212 64.948 137.788 65.684C138.364 66.388 139.1 67.076 139.996 67.748C140.924 68.388 141.884 69.076 142.876 69.812C143.932 70.612 144.892 71.412 145.756 72.212C146.62 72.98 147.308 73.828 147.82 74.756C148.332 75.684 148.588 76.788 148.588 78.068C148.588 79.508 148.172 80.772 147.34 81.86C146.508 82.916 145.404 83.732 144.028 84.308C142.684 84.884 141.18 85.172 139.516 85.172C138.556 85.172 137.692 85.076 136.924 84.884C136.188 84.692 135.548 84.452 135.004 84.164C134.588 83.972 134.188 83.796 133.804 83.636C133.452 83.444 133.116 83.284 132.796 83.156C132.476 83.06 132.188 83.172 131.932 83.492C131.708 83.812 131.532 84.26 131.404 84.836H130.396C130.46 83.812 130.508 82.564 130.54 81.092C130.572 79.62 130.588 77.668 130.588 75.236H131.596C131.788 76.964 132.14 78.5 132.652 79.844C133.164 81.156 133.852 82.196 134.716 82.964C135.612 83.7 136.732 84.068 138.076 84.068C138.62 84.068 139.148 83.956 139.66 83.732C140.172 83.508 140.588 83.14 140.908 82.628C141.26 82.116 141.436 81.46 141.436 80.66C141.436 79.252 140.972 78.084 140.044 77.156C139.148 76.228 137.996 75.22 136.588 74.132C135.564 73.3 134.588 72.484 133.66 71.684C132.764 70.852 132.028 69.956 131.452 68.996C130.876 68.004 130.588 66.884 130.588 65.636C130.588 64.196 130.972 62.98 131.74 61.988C132.508 60.996 133.516 60.26 134.764 59.78C136.044 59.268 137.404 59.012 138.844 59.012Z" fill="#EBE3D5"/>
</svg>
